<?xml version="1.0" encoding="iso-8859-1"?>
<!-- Generator: Adobe Illustrator 19.0.0, SVG Export Plug-In . SVG Version: 6.00 Build 0)  -->
<svg version="1.1" id="Layer_1" xmlns="http://www.w3.org/2000/svg" xmlns:xlink="http://www.w3.org/1999/xlink" x="0px" y="0px"
	 viewBox="0 0 460 460" style="enable-background:new 0 0 460 460;" xml:space="preserve">
<g id="XMLID_3048_">
	<path id="XMLID_2629_" style="fill:#898989;" d="M180,30L180,30v280h-20V40c0-5.523-4.477-10-10-10H70V10h90
		C171.046,10,180,18.954,180,30z"/>
	<path id="XMLID_2630_" style="fill:#898989;" d="M390,110v270h-20V110H390z"/>
	<path id="XMLID_2631_" style="fill:#353535;" d="M140,220h270c11.046,0,20,8.954,20,20l0,0c0,16.569-13.431,30-30,30H140V220z"/>
	<path id="XMLID_2632_" style="fill:#4F4F4F;" d="M430,240L430,240H140v-20h270C421.046,220,430,228.954,430,240z"/>
	<path id="XMLID_2633_" style="fill:#444444;" d="M100,40H20C8.954,40,0,31.046,0,20l0,0C0,8.954,8.954,0,20,0h80
		c11.046,0,20,8.954,20,20l0,0C120,31.046,111.046,40,100,40z"/>
	<path id="XMLID_2634_" style="fill:#444444;" d="M420,95c0,8.284-6.716,15-15,15H160V80h245C413.284,80,420,86.716,420,95z"/>
	<path id="XMLID_2625_" style="fill:#6B6B6B;" d="M460,405c0,30.376-24.624,55-55,55c-30.375,0-55-24.624-55-55s24.625-55,55-55
		C435.376,350,460,374.624,460,405z"/>
	<path id="XMLID_2622_" style="fill:#ACABB1;" d="M405,435.333c-16.753,0-30.333-13.581-30.333-30.333s13.581-30.333,30.333-30.333
		c16.753,0,30.333,13.581,30.333,30.333S421.753,435.333,405,435.333z"/>
	<path id="XMLID_2621_" style="fill:#BBBBBC;" d="M405,374.667v60.667c-16.753,0-30.333-13.581-30.333-30.333
		S388.247,374.667,405,374.667z"/>
	<path id="XMLID_2620_" style="fill:#898989;" d="M405,409.667c-2.577,0-4.667-2.089-4.667-4.667s2.089-4.667,4.667-4.667
		s4.667,2.089,4.667,4.667S407.577,409.667,405,409.667z"/>
	<path id="XMLID_2619_" style="fill:#6B6B6B;" d="M340,300c0,88.365-71.634,160-160,160c-88.365,0-160-71.635-160-160
		c0-88.366,71.635-160,160-160C268.366,140,340,211.634,340,300z"/>
	<path id="XMLID_2618_" style="fill:#ACABB1;" d="M180,417.333c-64.801,0-117.333-52.532-117.333-117.333
		S115.199,182.667,180,182.667S297.333,235.199,297.333,300S244.801,417.333,180,417.333z"/>
	<path id="XMLID_2616_" style="fill:#BBBBBC;" d="M180,182.667v234.667c-64.801,0-117.333-52.532-117.333-117.333
		C62.667,235.199,115.199,182.667,180,182.667z"/>
	<path id="XMLID_2615_" style="fill:#898989;" d="M180,321.333c-11.782,0-21.333-9.551-21.333-21.333s9.551-21.333,21.333-21.333
		s21.333,9.551,21.333,21.333S191.782,321.333,180,321.333z"/>
</g>
<g>
</g>
<g>
</g>
<g>
</g>
<g>
</g>
<g>
</g>
<g>
</g>
<g>
</g>
<g>
</g>
<g>
</g>
<g>
</g>
<g>
</g>
<g>
</g>
<g>
</g>
<g>
</g>
<g>
</g>
</svg>
