<?xml version="1.0" encoding="iso-8859-1"?>
<!-- Generator: Adobe Illustrator 18.0.0, SVG Export Plug-In . SVG Version: 6.00 Build 0)  -->
<!DOCTYPE svg PUBLIC "-//W3C//DTD SVG 1.1//EN" "http://www.w3.org/Graphics/SVG/1.1/DTD/svg11.dtd">
<svg version="1.1" id="Capa_1" xmlns="http://www.w3.org/2000/svg" xmlns:xlink="http://www.w3.org/1999/xlink" x="0px" y="0px"
	 viewBox="0 0 178.678 178.678" style="enable-background:new 0 0 178.678 178.678;" xml:space="preserve">
<path d="M100.921,79.373h-3.043V60.652h19.904c4.142,0,7.5-3.357,7.5-7.5s-3.358-7.5-7.5-7.5H97.878V34.655
	c6.273-2.855,10.645-9.163,10.645-16.509C108.522,8.125,100.397,0,90.378,0C80.353,0,72.229,8.125,72.229,18.146
	c0,7.348,4.371,13.655,10.648,16.51v10.996h-5.121c-13.433,0-24.361,10.928-24.361,24.359c0,13.433,10.929,24.361,24.361,24.361
	h5.121v18.723h-1.252c-13.434,0-24.363,10.928-24.363,24.359c0,13.433,10.93,24.361,24.363,24.361h1.252v9.361
	c0,4.143,3.357,7.5,7.5,7.5c4.143,0,7.5-3.357,7.5-7.5v-9.361h10.115c4.143,0,7.5-3.357,7.5-7.5c0-4.143-3.357-7.5-7.5-7.5H97.878
	v-18.721h3.043c13.433,0,24.361-10.928,24.361-24.359C125.282,90.303,114.354,79.373,100.921,79.373z M68.396,70.012
	c0-5.161,4.199-9.359,9.361-9.359h5.121v18.721h-5.121C72.595,79.373,68.396,75.174,68.396,70.012z M82.878,146.816h-1.252
	c-5.163,0-9.363-4.199-9.363-9.361c0-5.161,4.2-9.359,9.363-9.359h1.252V146.816z M100.921,113.096h-3.043V94.373h3.043
	c5.162,0,9.361,4.2,9.361,9.363C110.282,108.897,106.083,113.096,100.921,113.096z"/>
<g>
</g>
<g>
</g>
<g>
</g>
<g>
</g>
<g>
</g>
<g>
</g>
<g>
</g>
<g>
</g>
<g>
</g>
<g>
</g>
<g>
</g>
<g>
</g>
<g>
</g>
<g>
</g>
<g>
</g>
</svg>
