<?xml version="1.0" encoding="iso-8859-1"?>
<!-- Generator: Adobe Illustrator 19.0.0, SVG Export Plug-In . SVG Version: 6.00 Build 0)  -->
<svg version="1.1" id="Layer_1" xmlns="http://www.w3.org/2000/svg" xmlns:xlink="http://www.w3.org/1999/xlink" x="0px" y="0px"
	 viewBox="0 0 512 512" style="enable-background:new 0 0 512 512;" xml:space="preserve">
<rect x="172.521" y="342.258" style="fill:#7F8383;" width="166.955" height="33.391"/>
<path style="fill:#A4A49E;" d="M256.464,358.956h83.014V342.26h-89.929l0,0C243.388,348.421,247.751,358.956,256.464,358.956z"/>
<g>
	<path style="fill:#7F8383;" d="M222.661,219.826l-21.199-11.13l-26.025,11.13l207.89,207.89c3.154,3.152,7.347,4.888,11.804,4.888
		c4.457,0,8.649-1.736,11.807-4.891c6.507-6.51,6.507-17.101-0.001-23.612L222.661,219.826z"/>
	<path style="fill:#7F8383;" d="M289.339,219.826L105.064,404.103c-6.508,6.51-6.508,17.101,0.002,23.613
		c3.154,3.152,7.347,4.888,11.804,4.888s8.649-1.736,11.806-4.89l207.888-207.888l-26.026-11.13L289.339,219.826z"/>
</g>
<path style="fill:#A4A49E;" d="M116.87,415.909l154.339-154.341c6.161-6.161,1.798-16.694-6.915-16.694l0,0l-159.23,159.23
	L116.87,415.909z"/>
<circle style="fill:#706B63;" cx="116.869" cy="414.606" r="50.087"/>
<path style="fill:#ADA999;" d="M116.871,431.303c-9.206,0-16.696-7.49-16.696-16.696s7.49-16.696,16.696-16.696
	s16.696,7.49,16.696,16.696S126.077,431.303,116.871,431.303z"/>
<path style="fill:#C1BDAB;" d="M100.175,414.608c0,1.684,0.256,3.309,0.721,4.844c1.534,0.465,3.159,0.721,4.844,0.721
	c9.206,0,16.696-7.49,16.696-16.696c0-1.684-0.256-3.309-0.721-4.844c-1.534-0.465-3.159-0.721-4.844-0.721
	C107.664,397.912,100.175,405.401,100.175,414.608z"/>
<path style="fill:#848075;" d="M116.871,364.521c-27.662,0-50.087,22.424-50.087,50.087c0,19.837,11.532,36.977,28.258,45.089
	c4.651-6.519,4.069-15.625-1.782-21.476c-6.306-6.309-9.78-14.694-9.78-23.613c0-18.412,14.979-33.391,33.391-33.391
	c8.272,0,15.121-6.023,16.446-13.919C128.164,365.506,122.633,364.521,116.871,364.521z"/>
<path style="fill:#5B5751;" d="M116.871,464.694c27.662,0,50.087-22.424,50.087-50.087c0-19.837-11.532-36.977-28.258-45.089
	c-4.651,6.519-4.069,15.625,1.782,21.476c6.306,6.309,9.78,14.694,9.78,23.613c0,18.412-14.979,33.391-33.391,33.391
	c-8.272,0-15.121,6.023-16.446,13.919C105.577,463.708,111.108,464.694,116.871,464.694z"/>
<circle style="fill:#706B63;" cx="395.128" cy="414.606" r="50.087"/>
<path style="fill:#ADA999;" d="M395.13,431.303c-9.206,0-16.696-7.49-16.696-16.696s7.49-16.696,16.696-16.696
	c9.206,0,16.696,7.49,16.696,16.696S404.336,431.303,395.13,431.303z"/>
<path style="fill:#C1BDAB;" d="M378.435,414.608c0,1.684,0.256,3.309,0.721,4.844c1.534,0.465,3.159,0.721,4.844,0.721
	c9.206,0,16.696-7.49,16.696-16.696c0-1.684-0.256-3.309-0.721-4.844c-1.534-0.465-3.159-0.721-4.844-0.721
	C385.923,397.912,378.435,405.401,378.435,414.608z"/>
<path style="fill:#848075;" d="M395.13,364.521c-27.662,0-50.087,22.424-50.087,50.087c0,19.837,11.532,36.977,28.258,45.089
	c4.651-6.519,4.069-15.625-1.782-21.476c-6.306-6.309-9.78-14.694-9.78-23.613c0-18.412,14.979-33.391,33.391-33.391
	c8.272,0,15.121-6.023,16.446-13.919C406.423,365.506,400.892,364.521,395.13,364.521z"/>
<path style="fill:#5B5751;" d="M395.13,464.694c27.662,0,50.087-22.424,50.087-50.087c0-19.837-11.532-36.977-28.258-45.089
	c-4.651,6.519-4.069,15.625,1.782,21.476c6.306,6.309,9.78,14.694,9.78,23.613c0,18.412-14.979,33.391-33.391,33.391
	c-8.272,0-15.121,6.023-16.446,13.919C383.836,463.708,389.367,464.694,395.13,464.694z"/>
<path style="fill:#D5D2BD;" d="M191.001,114.131c-0.591-0.027-1.185-0.04-1.783-0.04h-58.71c-5.512,0-10.849-1.616-15.436-4.674
	L73.525,81.72c-0.498-0.332-1-0.65-1.506-0.955C50.52,67.789,30.631,99.944,51.526,113.873l0.391,0.26l3.738,27.78l122.434,33.391
	l11.13-22.257h0.47C214.799,153.048,216.088,115.261,191.001,114.131z"/>
<path style="fill:#C1BDAB;" d="M104.267,125.625L62.78,97.966L46.154,86.796c-5.33,8.179-5.264,19.987,5.372,27.077l0.391,0.26
	l3.459,25.716l5.049,3.366l107.473,29.311h11.581l9.74-19.478h0.47c12.75,0,19.345-9.74,19.478-19.478h-78.658
	C121.137,133.569,112.064,130.822,104.267,125.625z"/>
<path style="fill:#D5D2BD;" d="M5.611,123.395c10.23-15.345,30.962-19.49,46.306-9.262l41.546,27.698
	c11.007,7.338,23.817,11.216,37.044,11.216h58.71h289.392c18.441,0,33.391,14.95,33.391,33.391s-14.95,33.391-33.391,33.391H130.507
	c-26.456,0-52.073-7.757-74.087-22.431l-41.546-27.698C-0.471,159.47-4.618,138.738,5.611,123.395z"/>
<path style="fill:#C1BDAB;" d="M511.988,187.36c0.283-10.483-4.274-19.903-11.59-26.212c-7.549,3.468-13.28,10.212-15.367,18.414
	c-1.883,7.405-8.768,12.443-16.408,12.443H130.508c-20.943,0-41.226-6.142-58.653-17.757l-41.547-27.7
	c-9.342-6.226-21.073-6.053-30.043-0.529c1.156,9.304,6.194,18.072,14.607,23.681l41.546,27.698
	c22.014,14.675,47.632,22.431,74.087,22.431h347.403C496.111,219.83,511.497,205.555,511.988,187.36z"/>
<path style="fill:#7F8383;" d="M367.304,47.306H211.479c-58.304,0-105.738,47.434-105.738,105.738
	c0,9.22,7.475,16.696,16.696,16.696s16.696-7.475,16.696-16.696c0-39.892,32.455-72.347,72.347-72.347h61.217l16.696,111.304
	c9.22,0,16.696-7.475,16.696-16.696V80.697h61.217c39.892,0,72.347,32.455,72.347,72.347v22.261c0,9.22,7.475,16.696,16.696,16.696
	s16.696-7.475,16.696-16.696v-22.261C473.043,94.74,425.607,47.306,367.304,47.306z"/>
<g>
	<path style="fill:#A4A49E;" d="M367.304,47.306H211.479c-58.304,0-105.738,47.434-105.738,105.738
		c0,6.176,3.362,11.556,8.348,14.444c4.985-2.888,8.348-8.268,8.348-14.444c0-49.098,39.945-89.043,89.043-89.043h155.825
		c8.777,0,15.959-6.778,16.629-15.384C378.514,47.757,372.961,47.306,367.304,47.306z"/>
	<path style="fill:#A4A49E;" d="M272.696,175.305c0,9.22,7.475,16.696,16.696,16.696V97.392c0-9.22-7.475-16.696-16.696-16.696l0,0
		L272.696,175.305L272.696,175.305z"/>
</g>
<g>
</g>
<g>
</g>
<g>
</g>
<g>
</g>
<g>
</g>
<g>
</g>
<g>
</g>
<g>
</g>
<g>
</g>
<g>
</g>
<g>
</g>
<g>
</g>
<g>
</g>
<g>
</g>
<g>
</g>
</svg>
