<?xml version="1.0" encoding="iso-8859-1"?>
<!-- Generator: Adobe Illustrator 19.0.0, SVG Export Plug-In . SVG Version: 6.00 Build 0)  -->
<svg version="1.1" id="Layer_1" xmlns="http://www.w3.org/2000/svg" xmlns:xlink="http://www.w3.org/1999/xlink" x="0px" y="0px"
	 viewBox="0 0 511.999 511.999" style="enable-background:new 0 0 511.999 511.999;" xml:space="preserve">
<path style="fill:#7F8383;" d="M193.767,345.735c5.063-5.063,5.063-13.272,0-18.335l-4.584-4.584l-77.465,55.463l-60.241,82.243
	l13.557,13.945L193.767,345.735z"/>
<path style="fill:#A4A49E;" d="M184.599,318.232c-5.063-5.063-13.272-5.063-18.335,0L37.92,446.577l13.557,13.945l137.706-137.706
	L184.599,318.232z"/>
<path style="fill:#47423F;" d="M45.201,507.49l20.882-24.269c2.212-2.571,2.068-6.414-0.331-8.812l-14.082-14.082l-25.052,6.717
	L15,496.998l11.204,11.204C31.539,513.536,40.281,513.208,45.201,507.49z"/>
<path style="fill:#5B5751;" d="M37.59,446.246c-2.398-2.398-6.241-2.542-8.812-0.331L4.509,466.798
	c-5.717,4.919-6.044,13.662-0.712,18.995l11.204,11.204l36.669-36.669L37.59,446.246z"/>
<g>
	<path style="fill:#7F8383;" d="M173.859,237.299L342.279,68.878l-19.251-35.753l-176.671,176.67
		c-20.393,20.393-31.625,47.509-31.625,76.351c-0.001,18.453-7.186,35.801-20.234,48.848l-10.74,10.74
		c-5.063,5.063-5.063,13.272,0,18.335l9.167,9.167c5.063,5.063,13.272,5.063,18.335,0l10.74-10.74
		c20.394-20.393,31.625-47.509,31.625-76.35C153.627,267.695,160.812,250.345,173.859,237.299z"/>
	<path style="fill:#7F8383;" d="M444.038,168.802L274.7,338.14c-13.048,13.048-30.396,20.233-48.848,20.234
		c-28.841,0-55.956,11.231-76.351,31.625l-10.74,10.74c-5.063,5.063-5.063,13.272,0,18.335l9.167,9.167
		c5.063,5.063,13.272,5.063,18.335,0l10.74-10.74c13.048-13.048,30.396-20.233,48.848-20.234c28.841,0,55.956-11.231,76.35-31.625
		l178.505-178.505L444.038,168.802z"/>
</g>
<g>
	<path style="fill:#A4A49E;" d="M290.069,66.083L146.356,209.796c-20.393,20.393-31.625,47.509-31.625,76.351
		c-0.001,18.453-7.186,35.801-20.234,48.848l-10.74,10.74c-5.063,5.063-5.063,13.272,0,18.335l4.584,4.584l19.907-19.907
		c16.719-16.719,25.928-38.951,25.929-62.599c0-23.648,9.209-45.878,25.929-62.599L300.482,83.173
		c-1.693-2.655-3.357-5.331-4.977-8.032L290.069,66.083z"/>
	<path style="fill:#A4A49E;" d="M274.7,338.14c-13.048,13.048-30.396,20.233-48.848,20.234c-28.841,0-55.956,11.231-76.351,31.625
		l-10.74,10.74c-5.063,5.063-5.063,13.272,0,18.335l4.584,4.584l19.907-19.907c16.721-16.721,38.951-25.929,62.6-25.928
		c23.648-0.001,45.878-9.21,62.599-25.931l140.374-140.374c-5.567-3.55-11.029-7.259-16.384-11.119L274.7,338.14z"/>
</g>
<path style="fill:#7A5436;" d="M334.639,278.201l-6.721,6.721c-9.642,9.642-25.058,10.114-35.383,1.206
	c-23.827-20.557-46.108-42.838-66.665-66.665c-8.908-10.325-8.436-25.74,1.206-35.383l6.721-6.721
	c9.642-9.642,25.058-10.114,35.383-1.206c23.827,20.557,46.108,42.838,66.665,66.665
	C344.752,253.143,344.282,268.559,334.639,278.201z"/>
<path style="fill:#8D663D;" d="M335.844,242.819c7.032,8.15,8.194,19.464,3.639,28.614c-9.15,4.555-20.464,3.393-28.614-3.639
	c-23.827-20.557-46.108-42.838-66.665-66.665c-7.032-8.15-8.194-19.464-3.639-28.614c9.15-4.555,20.464-3.393,28.614,3.639
	C293.006,196.712,315.288,218.993,335.844,242.819z"/>
<path style="fill:#7A5436;" d="M390.501,143.569c18.35,18.35,38.943,34.459,61.365,47.912l10.297,6.179
	c8.301,4.981,18.365,6.086,27.55,3.025c8.344-2.781,15.241-8.764,19.175-16.631l0,0c6.879-13.759,2.006-30.494-11.185-38.409l0,0
	c-22.421-13.452-43.014-29.561-61.365-47.912l-22.071-22.071c-18.35-18.35-34.459-38.943-47.912-61.365l0,0
	c-7.915-13.19-24.65-18.064-38.409-11.185l0,0c-7.867,3.933-13.849,10.831-16.631,19.175c-3.062,9.184-1.956,19.249,3.025,27.55
	l6.179,10.297c13.452,22.421,29.561,43.014,47.912,61.365L390.501,143.569z"/>
<path style="fill:#8D663D;" d="M483.247,176.575l-10.297-6.178c-22.421-13.452-43.014-29.561-61.365-47.912l-22.071-22.071
	c-18.35-18.35-34.459-38.943-47.912-61.365l-6.178-10.297c-4.953-8.253-6.069-18.247-3.074-27.387
	c12.762-3.993,26.917,1.12,34.004,12.931c13.452,22.421,29.561,43.014,47.912,61.365l22.071,22.071
	c18.35,18.35,38.943,34.459,61.365,47.912c11.811,7.087,16.924,21.241,12.931,34.004C501.495,182.644,491.5,181.526,483.247,176.575
	z"/>
<g>
</g>
<g>
</g>
<g>
</g>
<g>
</g>
<g>
</g>
<g>
</g>
<g>
</g>
<g>
</g>
<g>
</g>
<g>
</g>
<g>
</g>
<g>
</g>
<g>
</g>
<g>
</g>
<g>
</g>
</svg>
