<?xml version="1.0" encoding="iso-8859-1"?>
<!-- Generator: Adobe Illustrator 18.0.0, SVG Export Plug-In . SVG Version: 6.00 Build 0)  -->
<!DOCTYPE svg PUBLIC "-//W3C//DTD SVG 1.1//EN" "http://www.w3.org/Graphics/SVG/1.1/DTD/svg11.dtd">
<svg version="1.1" id="Capa_1" xmlns="http://www.w3.org/2000/svg" xmlns:xlink="http://www.w3.org/1999/xlink" x="0px" y="0px"
	 viewBox="0 0 254.03 254.03" style="enable-background:new 0 0 254.03 254.03;" xml:space="preserve">
<g>
	<path d="M238.735,194.51c0-33.2-26.915-60.115-60.115-60.115h-43.127V12.144C135.493,5.437,130.056,0,123.348,0H27.44
		c-3.226,0-6.319,1.283-8.598,3.567c-2.278,2.284-3.554,5.38-3.547,8.606l0.51,214.242c0.036,15.262,12.419,27.615,27.681,27.615
		H226.59c6.707,0,12.145-5.437,12.145-12.144V194.51z M148.378,171.649h-16.667c-4.143,0-7.5-3.357-7.5-7.5
		c0-4.143,3.357-7.5,7.5-7.5h16.667c4.143,0,7.5,3.357,7.5,7.5C155.878,168.292,152.521,171.649,148.378,171.649z M216.878,214.999
		c0,4.143-3.357,7.5-7.5,7.5c-4.143,0-7.5-3.357-7.5-7.5v-20.924c0-12.365-10.06-22.426-22.425-22.426c-4.143,0-7.5-3.357-7.5-7.5
		c0-4.143,3.357-7.5,7.5-7.5c20.636,0,37.425,16.789,37.425,37.426V214.999z"/>
</g>
<g>
</g>
<g>
</g>
<g>
</g>
<g>
</g>
<g>
</g>
<g>
</g>
<g>
</g>
<g>
</g>
<g>
</g>
<g>
</g>
<g>
</g>
<g>
</g>
<g>
</g>
<g>
</g>
<g>
</g>
</svg>
