<?xml version="1.0" encoding="iso-8859-1"?>
<!-- Generator: Adobe Illustrator 19.0.0, SVG Export Plug-In . SVG Version: 6.00 Build 0)  -->
<svg version="1.1" id="Layer_1" xmlns="http://www.w3.org/2000/svg" xmlns:xlink="http://www.w3.org/1999/xlink" x="0px" y="0px"
	 viewBox="0 0 512 512" style="enable-background:new 0 0 512 512;" xml:space="preserve">
<path style="fill:#E6E9ED;" d="M425.857,140.006l-0.037-0.973l-0.123-0.949c-3.474-25.108-14.242-48.393-30.332-65.58
	c-18-19.232-41.95-29.827-67.428-29.827H141.569c-25.478,0-49.428,10.595-67.428,29.827c-16.09,17.187-26.87,40.484-30.332,65.58
	l-0.136,0.961L32.302,492.928c-0.333,10.201,7.675,18.739,17.877,19.059C50.376,512,50.585,512,50.782,512
	c9.93,0,18.135-7.885,18.468-17.889l3.967-123.448h323.243l1.257,38.55c0.333,10.004,8.538,17.877,18.468,17.877
	c0.197,0,0.407,0,0.616-0.012c10.201-0.333,18.197-8.871,17.864-19.072L425.857,140.006z M80.56,142.211
	c6.308-42.985,35.962-62.574,61.009-62.574h186.367c25.047,0,54.701,19.589,61.009,62.574l0.838,25.626H79.735L80.56,142.211z
	 M74.4,333.703l4.14-128.906h312.463l4.238,128.906H74.4z"/>
<path style="fill:#CCD1D9;" d="M434.665,408.006c0.333,10.201-7.663,18.739-17.864,19.072c-0.209,0.012-0.419,0.012-0.616,0.012
	c-9.93,0-18.135-7.873-18.468-17.876l-1.257-38.55h-161.64v-36.96h160.42l-4.238-128.906H234.821v-36.96h154.963l-0.838-25.626
	c-6.308-42.985-35.962-62.574-61.009-62.574h-93.116v-36.96h93.116c25.478,0,49.428,10.595,67.428,29.827
	c16.09,17.187,26.858,40.472,30.332,65.58l0.123,0.949l0.037,0.973L434.665,408.006z"/>
<g>
	<path style="fill:#656D78;" d="M326.741,30.554v61.49c0,16.854-13.7,30.554-30.554,30.554H172.604
		c-16.842,0-30.554-13.7-30.554-30.554v-61.49C142.05,13.7,155.762,0,172.604,0h123.583C313.041,0,326.741,13.7,326.741,30.554z"/>
	<path style="fill:#656D78;" d="M479.708,451.028c0,33.622-27.351,60.972-60.985,60.972c-33.622,0-60.972-27.351-60.972-60.972
		s27.351-60.985,60.972-60.985C452.357,390.043,479.708,417.406,479.708,451.028z"/>
</g>
<g>
	<path style="fill:#434A54;" d="M326.741,30.554v61.49c0,16.854-13.7,30.554-30.554,30.554h-61.785V0h61.785
		C313.041,0,326.741,13.7,326.741,30.554z"/>
	<path style="fill:#434A54;" d="M479.708,451.028c0,33.622-27.351,60.972-60.985,60.972V390.043
		C452.357,390.043,479.708,417.406,479.708,451.028z"/>
</g>
<g>
</g>
<g>
</g>
<g>
</g>
<g>
</g>
<g>
</g>
<g>
</g>
<g>
</g>
<g>
</g>
<g>
</g>
<g>
</g>
<g>
</g>
<g>
</g>
<g>
</g>
<g>
</g>
<g>
</g>
</svg>
